<mxfile host="app.diagrams.net" modified="2024-03-16T07:12:54.512Z" agent="Mozilla/5.0 (Windows NT 10.0; Win64; x64) AppleWebKit/537.36 (KHTML, like Gecko) Chrome/122.0.0.0 Safari/537.36 Edg/122.0.0.0" version="24.0.2" etag="l0qhw5sdSpit8GLL-ctf" type="github">
  <diagram name="PÃ¡gina-1" id="RFdT9wVy2gBjvr8lcH20">
    <mxGraphModel>
      <root>
        <mxCell id="0" />
        <mxCell id="1" parent="0" />
      </root>
    </mxGraphModel>
  </diagram>
</mxfile>
